<?xml version="1.0" encoding="utf-8"?>
<!-- Generator: Adobe Illustrator 18.1.1, SVG Export Plug-In . SVG Version: 6.00 Build 0)  -->
<!DOCTYPE svg PUBLIC "-//W3C//DTD SVG 1.1//EN" "http://www.w3.org/Graphics/SVG/1.1/DTD/svg11.dtd">
<svg version="1.1" xmlns="http://www.w3.org/2000/svg" xmlns:xlink="http://www.w3.org/1999/xlink" x="0px" y="0px"
	 viewBox="0 0 182 272" enable-background="new 0 0 182 272" xml:space="preserve">
<g id="header-nutrilite">
</g>
<g id="footer-artistry">
	<g>
		<path fill="#FCBD10" d="M182,0v272H24.69C11.06,272,0,260.94,0,247.31V24.69C0,11.06,11.06,0,24.69,0H182z"/>
		<g>
			<g opacity="0.83">
				<path opacity="0.34" fill="#FFFFFF" d="M182,225.78V272H24.69C11.06,272,0,260.94,0,247.31v-14.23
					c39-22.41,76.68-57.1,137.11-23.32C153.28,218.79,168.13,223.7,182,225.78z"/>
				<path opacity="0.34" fill="#FFFFFF" d="M182,259.58V272H24.69C11.06,272,0,260.94,0,247.31v-53.28
					c29.6-10.89,66.69-15.5,145.6,45.93C158.56,250.05,170.63,256.27,182,259.58z"/>
				<path opacity="0.18" fill="#FFFFFF" d="M182,181.96V272H24.69C11.06,272,0,260.94,0,247.31v-22.62
					C68.43,229.06,119.08,180.77,182,181.96z"/>
			</g>
			<path opacity="0.25" fill-rule="evenodd" clip-rule="evenodd" fill="#FFFFFF" d="M0,24.69v25.568
				C25.019,31.48,59.641,20.25,107,30c32.568,6.705,56.86,5.139,75-1.1V0H24.69C11.06,0,0,11.06,0,24.69z"/>
		</g>
		<g>
			<path fill-rule="evenodd" clip-rule="evenodd" fill="#FFFFFF" d="M34.333,82.667l0.772,1.412
				c1.035,1.892,2.591,3.448,4.483,4.483L41,89.333l-1.412,0.772c-1.892,1.035-3.448,2.591-4.483,4.483L34.333,96l-0.772-1.412
				c-1.035-1.892-2.591-3.448-4.483-4.483l-1.412-0.772l1.412-0.772c1.892-1.035,3.448-2.591,4.483-4.483L34.333,82.667z"/>
			<path fill-rule="evenodd" clip-rule="evenodd" fill="#FFFFFF" d="M95.083,47.333l0.733,1.341
				c0.983,1.798,2.461,3.276,4.259,4.259l1.341,0.734l-1.341,0.733c-1.798,0.983-3.276,2.461-4.259,4.259L95.083,60l-0.733-1.341
				c-0.983-1.798-2.461-3.276-4.259-4.259l-1.341-0.733l1.341-0.734c1.798-0.983,3.276-2.461,4.259-4.259L95.083,47.333z"/>
			<path fill-rule="evenodd" clip-rule="evenodd" fill="#FFFFFF" d="M147.333,98l0.772,1.412c1.035,1.892,2.591,3.448,4.483,4.483
				l1.412,0.772l-1.412,0.772c-1.892,1.035-3.448,2.591-4.483,4.483l-0.772,1.412l-0.772-1.412
				c-1.035-1.892-2.591-3.448-4.483-4.483l-1.412-0.772l1.412-0.772c1.892-1.035,3.448-2.591,4.483-4.483L147.333,98z"/>
			<path fill-rule="evenodd" clip-rule="evenodd" fill="#FFFFFF" d="M94.5,179.333l0.637,1.165c0.854,1.561,2.137,2.845,3.699,3.699
				l1.165,0.637l-1.165,0.637c-1.561,0.854-2.845,2.137-3.699,3.699l-0.637,1.164l-0.637-1.164
				c-0.854-1.561-2.137-2.845-3.699-3.699L89,184.833l1.165-0.637c1.561-0.854,2.845-2.137,3.699-3.699L94.5,179.333z"/>
			<g>
				<path fill="#FFFFFF" d="M70.484,100.333c-2.202,0-3.484,1.016-3.484,2.633v12.121c0,1.618,1.282,3.246,3.484,3.246H73v-18
					H70.484z"/>
				<path fill="#FFFFFF" d="M123.333,100.333c2.202,0,3.667,1.016,3.667,2.633v12.121c0,1.618-1.465,3.246-3.667,3.246H121v-18
					H123.333z"/>
				<path fill="#FFFFFF" d="M110.87,88.333H100v-6.518c0-1.389-1.317-2.482-2.706-2.482h-0.891c-1.389,0-2.403,1.093-2.403,2.482
					v6.518H82.965c-3.889,0-6.965,2.823-6.965,6.712v24.963c0,3.889,3.076,7.325,6.965,7.325h27.904c3.889,0,7.13-3.436,7.13-7.325
					v-2.277V99.907v-4.862C118,91.156,114.759,88.333,110.87,88.333z M91,119.333h-6v-4h6V119.333z M87.758,107.037
					c-2.166,0-3.921-1.756-3.921-3.921c0-2.166,1.756-3.921,3.921-3.921c2.166,0,3.921,1.756,3.921,3.921
					C91.68,105.281,89.924,107.037,87.758,107.037z M100,119.333h-6v-4h6V119.333z M109,119.333h-6v-4h6V119.333z M105.583,107.037
					c-2.166,0-3.921-1.756-3.921-3.921c0-2.166,1.756-3.921,3.921-3.921c2.166,0,3.921,1.756,3.921,3.921
					C109.504,105.281,107.748,107.037,105.583,107.037z"/>
			</g>
			<g>
				<path fill="#FFFFFF" d="M29.651,140.577c1.785,0,3.153,0.318,4.104,0.953c0.951,0.636,1.426,1.624,1.426,2.963
					c0,0.836-0.191,1.514-0.574,2.035c-0.384,0.521-0.937,0.93-1.658,1.228c0.24,0.298,0.492,0.639,0.755,1.022
					c0.264,0.384,0.524,0.785,0.783,1.203c0.257,0.418,0.506,0.853,0.746,1.305c0.24,0.453,0.464,0.897,0.67,1.331h-2.995
					c-0.218-0.389-0.439-0.784-0.664-1.185c-0.224-0.4-0.453-0.79-0.689-1.168c-0.235-0.378-0.468-0.735-0.697-1.074
					c-0.231-0.338-0.461-0.644-0.691-0.919h-1.322v4.346h-2.68v-11.731c0.584-0.115,1.188-0.195,1.812-0.24
					C28.6,140.6,29.158,140.577,29.651,140.577z M29.805,142.862c-0.194,0-0.369,0.006-0.524,0.017
					c-0.154,0.012-0.301,0.023-0.438,0.035v3.229H29.6c1.006,0,1.729-0.126,2.164-0.378c0.435-0.252,0.653-0.681,0.653-1.288
					c0-0.584-0.221-0.999-0.661-1.245C31.313,142.985,30.663,142.862,29.805,142.862z"/>
				<path fill="#FFFFFF" d="M45.47,148.083c0,0.71-0.103,1.36-0.309,1.949c-0.207,0.59-0.505,1.094-0.893,1.512
					c-0.39,0.418-0.857,0.742-1.401,0.971c-0.544,0.229-1.153,0.343-1.828,0.343c-0.665,0-1.269-0.115-1.813-0.343
					c-0.544-0.229-1.011-0.553-1.399-0.971c-0.39-0.418-0.693-0.922-0.911-1.512c-0.217-0.589-0.326-1.239-0.326-1.949
					c0-0.71,0.112-1.357,0.335-1.941c0.222-0.584,0.533-1.082,0.927-1.494c0.396-0.412,0.865-0.733,1.409-0.962
					c0.544-0.229,1.136-0.343,1.778-0.343c0.651,0,1.25,0.115,1.795,0.343c0.544,0.229,1.011,0.55,1.399,0.962
					c0.39,0.412,0.693,0.91,0.91,1.494C45.361,146.726,45.47,147.373,45.47,148.083z M42.859,148.083
					c0-0.79-0.158-1.411-0.472-1.864c-0.315-0.452-0.765-0.678-1.347-0.678c-0.584,0-1.037,0.226-1.357,0.678
					c-0.321,0.453-0.481,1.074-0.481,1.864c0,0.79,0.159,1.417,0.481,1.881c0.32,0.464,0.773,0.695,1.357,0.695
					c0.583,0,1.033-0.231,1.347-0.695C42.701,149.5,42.859,148.873,42.859,148.083z"/>
				<path fill="#FFFFFF" d="M55.845,148.1c0,0.721-0.106,1.374-0.317,1.958c-0.212,0.584-0.519,1.082-0.92,1.494
					c-0.401,0.412-0.893,0.73-1.477,0.953c-0.583,0.224-1.248,0.335-1.992,0.335c-0.309,0-0.633-0.014-0.97-0.043
					c-0.338-0.029-0.67-0.066-0.997-0.112c-0.326-0.045-0.639-0.1-0.937-0.163s-0.561-0.129-0.79-0.198v-12.624l2.559-0.412v4.5
					c0.287-0.126,0.584-0.224,0.893-0.292c0.309-0.068,0.642-0.103,0.997-0.103c0.64,0,1.208,0.111,1.7,0.335
					c0.492,0.223,0.904,0.541,1.237,0.953c0.333,0.412,0.584,0.908,0.756,1.486S55.845,147.39,55.845,148.1z M53.233,148.031
					c0-1.649-0.607-2.473-1.82-2.473c-0.264,0-0.524,0.034-0.781,0.103c-0.259,0.068-0.467,0.154-0.628,0.257v4.655
					c0.126,0.023,0.287,0.043,0.481,0.06c0.194,0.017,0.407,0.026,0.636,0.026c0.697,0,1.224-0.24,1.58-0.721
					S53.233,148.822,53.233,148.031z"/>
				<path fill="#FFFFFF" d="M60.619,140.972c0,0.47-0.152,0.839-0.456,1.108s-0.661,0.403-1.074,0.403
					c-0.411,0-0.77-0.134-1.074-0.403c-0.303-0.269-0.454-0.639-0.454-1.108c0-0.469,0.151-0.839,0.454-1.108
					c0.303-0.268,0.663-0.403,1.074-0.403c0.412,0,0.77,0.135,1.074,0.403C60.467,140.133,60.619,140.503,60.619,140.972z
					 M60.379,152.617H57.82v-9.035h2.559V152.617z"/>
				<path fill="#FFFFFF" d="M71.183,148.1c0,0.721-0.106,1.374-0.317,1.958c-0.212,0.584-0.519,1.082-0.92,1.494
					c-0.401,0.412-0.893,0.73-1.477,0.953c-0.583,0.224-1.248,0.335-1.992,0.335c-0.309,0-0.633-0.014-0.97-0.043
					c-0.338-0.029-0.67-0.066-0.997-0.112c-0.326-0.045-0.639-0.1-0.937-0.163s-0.561-0.129-0.79-0.198v-12.624l2.559-0.412v4.5
					c0.287-0.126,0.584-0.224,0.893-0.292c0.309-0.068,0.642-0.103,0.997-0.103c0.64,0,1.208,0.111,1.7,0.335
					c0.492,0.223,0.904,0.541,1.237,0.953c0.333,0.412,0.584,0.908,0.756,1.486S71.183,147.39,71.183,148.1z M68.571,148.031
					c0-1.649-0.607-2.473-1.82-2.473c-0.264,0-0.524,0.034-0.781,0.103c-0.259,0.068-0.467,0.154-0.628,0.257v4.655
					c0.126,0.023,0.287,0.043,0.481,0.06c0.194,0.017,0.407,0.026,0.636,0.026c0.698,0,1.224-0.24,1.58-0.721
					C68.394,149.457,68.571,148.822,68.571,148.031z"/>
				<path fill="#FFFFFF" d="M81.609,148.083c0,0.71-0.103,1.36-0.309,1.949c-0.207,0.59-0.505,1.094-0.893,1.512
					c-0.39,0.418-0.857,0.742-1.401,0.971c-0.544,0.229-1.153,0.343-1.828,0.343c-0.665,0-1.269-0.115-1.813-0.343
					c-0.544-0.229-1.011-0.553-1.399-0.971c-0.39-0.418-0.693-0.922-0.911-1.512c-0.217-0.589-0.326-1.239-0.326-1.949
					c0-0.71,0.112-1.357,0.335-1.941c0.222-0.584,0.533-1.082,0.927-1.494c0.396-0.412,0.865-0.733,1.409-0.962
					c0.544-0.229,1.136-0.343,1.778-0.343c0.651,0,1.25,0.115,1.795,0.343c0.544,0.229,1.011,0.55,1.399,0.962
					c0.39,0.412,0.693,0.91,0.91,1.494C81.5,146.726,81.609,147.373,81.609,148.083z M78.998,148.083
					c0-0.79-0.158-1.411-0.472-1.864c-0.315-0.452-0.765-0.678-1.347-0.678c-0.584,0-1.037,0.226-1.357,0.678
					c-0.321,0.453-0.481,1.074-0.481,1.864c0,0.79,0.159,1.417,0.481,1.881c0.32,0.464,0.773,0.695,1.357,0.695
					c0.583,0,1.033-0.231,1.347-0.695C78.84,149.5,78.998,148.873,78.998,148.083z"/>
				<path fill="#FFFFFF" d="M83.498,141.333l2.559-0.412v2.662h3.074v2.13h-3.074v3.178c0,0.538,0.094,0.968,0.282,1.288
					c0.19,0.321,0.57,0.481,1.143,0.481c0.274,0,0.558-0.026,0.85-0.077c0.292-0.052,0.558-0.123,0.798-0.215l0.361,1.992
					c-0.309,0.126-0.653,0.235-1.03,0.326c-0.377,0.092-0.841,0.138-1.391,0.138c-0.699,0-1.278-0.094-1.735-0.284
					c-0.458-0.189-0.825-0.452-1.1-0.79c-0.275-0.338-0.467-0.747-0.576-1.228c-0.108-0.481-0.162-1.013-0.162-1.598V141.333z"/>
				<path fill="#FFFFFF" d="M103.504,141.985c0.137,0.47,0.288,0.999,0.454,1.589c0.165,0.59,0.342,1.199,0.531,1.829
					c0.189,0.63,0.38,1.26,0.574,1.889c0.194,0.63,0.383,1.214,0.566,1.752c0.15-0.584,0.302-1.22,0.457-1.907
					c0.155-0.687,0.302-1.396,0.44-2.13c0.137-0.732,0.273-1.463,0.405-2.19c0.131-0.727,0.256-1.428,0.37-2.104h2.784
					c-0.404,1.993-0.868,4.014-1.392,6.063c-0.524,2.05-1.09,3.996-1.701,5.84h-2.45c-0.401-1.099-0.79-2.253-1.166-3.461
					c-0.377-1.208-0.749-2.419-1.115-3.633c-0.366,1.214-0.734,2.425-1.1,3.633c-0.366,1.208-0.751,2.362-1.152,3.461h-2.449
					c-0.611-1.844-1.177-3.79-1.7-5.84c-0.523-2.049-0.985-4.07-1.388-6.063h2.902c0.116,0.676,0.242,1.377,0.38,2.104
					c0.138,0.728,0.282,1.458,0.432,2.19c0.15,0.733,0.302,1.443,0.457,2.13c0.155,0.687,0.313,1.323,0.475,1.907
					c0.205-0.561,0.407-1.156,0.602-1.786c0.194-0.63,0.383-1.259,0.568-1.889c0.183-0.63,0.352-1.237,0.507-1.821
					c0.155-0.584,0.295-1.105,0.421-1.563H103.504z"/>
				<path fill="#FFFFFF" d="M110.62,148.169c0-0.802,0.123-1.503,0.369-2.104c0.246-0.601,0.57-1.101,0.97-1.503
					c0.401-0.4,0.862-0.704,1.384-0.911c0.52-0.206,1.055-0.309,1.606-0.309c1.282,0,2.295,0.392,3.04,1.176
					c0.744,0.785,1.115,1.939,1.115,3.461c0,0.15-0.006,0.312-0.017,0.49c-0.011,0.178-0.024,0.335-0.035,0.472h-5.805
					c0.057,0.527,0.303,0.944,0.738,1.254c0.436,0.309,1.019,0.463,1.753,0.463c0.47,0,0.93-0.043,1.382-0.129
					c0.451-0.086,0.822-0.191,1.108-0.318l0.342,2.079c-0.137,0.068-0.32,0.138-0.549,0.206c-0.229,0.068-0.484,0.129-0.765,0.18
					c-0.281,0.052-0.581,0.094-0.902,0.129c-0.32,0.034-0.642,0.052-0.962,0.052c-0.814,0-1.519-0.12-2.122-0.361
					c-0.601-0.24-1.099-0.57-1.494-0.988c-0.394-0.418-0.686-0.913-0.875-1.486C110.715,149.451,110.62,148.833,110.62,148.169z
					 M116.632,147.19c-0.011-0.217-0.049-0.429-0.112-0.635c-0.063-0.206-0.161-0.389-0.292-0.55
					c-0.131-0.16-0.298-0.292-0.498-0.395c-0.201-0.103-0.45-0.154-0.748-0.154c-0.287,0-0.533,0.049-0.738,0.146
					c-0.207,0.097-0.379,0.226-0.516,0.386c-0.137,0.16-0.243,0.346-0.317,0.558c-0.075,0.212-0.129,0.427-0.164,0.644H116.632z"/>
				<path fill="#FFFFFF" d="M129.479,148.1c0,0.721-0.106,1.374-0.317,1.958c-0.212,0.584-0.519,1.082-0.92,1.494
					c-0.401,0.412-0.893,0.73-1.477,0.953c-0.583,0.224-1.248,0.335-1.992,0.335c-0.309,0-0.633-0.014-0.97-0.043
					c-0.338-0.029-0.67-0.066-0.997-0.112c-0.326-0.045-0.639-0.1-0.937-0.163s-0.561-0.129-0.79-0.198v-12.624l2.559-0.412v4.5
					c0.287-0.126,0.584-0.224,0.893-0.292c0.309-0.068,0.642-0.103,0.997-0.103c0.64,0,1.208,0.111,1.7,0.335
					c0.492,0.223,0.904,0.541,1.237,0.953c0.333,0.412,0.584,0.908,0.756,1.486C129.394,146.746,129.479,147.39,129.479,148.1z
					 M126.868,148.031c0-1.649-0.607-2.473-1.82-2.473c-0.264,0-0.524,0.034-0.781,0.103c-0.259,0.068-0.467,0.154-0.628,0.257
					v4.655c0.126,0.023,0.287,0.043,0.481,0.06c0.194,0.017,0.407,0.026,0.636,0.026c0.697,0,1.224-0.24,1.579-0.721
					C126.69,149.457,126.868,148.822,126.868,148.031z"/>
				<path fill="#FFFFFF" d="M133.683,152.617c-0.587-1.145-1.181-2.485-1.785-4.019c-0.604-1.534-1.176-3.206-1.715-5.015h2.713
					c0.116,0.447,0.25,0.93,0.405,1.452c0.155,0.521,0.317,1.048,0.484,1.58c0.166,0.533,0.334,1.05,0.5,1.554
					s0.331,0.962,0.492,1.374c0.15-0.412,0.31-0.87,0.482-1.374c0.172-0.504,0.342-1.022,0.509-1.554
					c0.166-0.533,0.327-1.06,0.482-1.58c0.155-0.521,0.291-1.005,0.405-1.452h2.647c-0.54,1.809-1.111,3.481-1.714,5.015
					c-0.604,1.535-1.198,2.875-1.784,4.019H133.683z"/>
				<path fill="#FFFFFF" d="M143.46,140.972c0,0.47-0.152,0.839-0.456,1.108s-0.661,0.403-1.074,0.403
					c-0.411,0-0.77-0.134-1.074-0.403c-0.303-0.269-0.454-0.639-0.454-1.108c0-0.469,0.151-0.839,0.454-1.108
					c0.303-0.268,0.663-0.403,1.074-0.403c0.412,0,0.77,0.135,1.074,0.403C143.307,140.133,143.46,140.503,143.46,140.972z
					 M143.219,152.617h-2.559v-9.035h2.559V152.617z"/>
				<path fill="#FFFFFF" d="M145.194,148.169c0-0.802,0.123-1.503,0.369-2.104c0.246-0.601,0.57-1.101,0.97-1.503
					c0.401-0.4,0.862-0.704,1.384-0.911c0.52-0.206,1.055-0.309,1.606-0.309c1.282,0,2.295,0.392,3.04,1.176
					c0.744,0.785,1.115,1.939,1.115,3.461c0,0.15-0.006,0.312-0.017,0.49s-0.024,0.335-0.035,0.472h-5.805
					c0.057,0.527,0.303,0.944,0.738,1.254c0.436,0.309,1.019,0.463,1.753,0.463c0.47,0,0.93-0.043,1.382-0.129
					c0.451-0.086,0.822-0.191,1.108-0.318l0.342,2.079c-0.137,0.068-0.32,0.138-0.549,0.206c-0.229,0.068-0.484,0.129-0.765,0.18
					c-0.281,0.052-0.581,0.094-0.902,0.129c-0.32,0.034-0.642,0.052-0.962,0.052c-0.814,0-1.519-0.12-2.122-0.361
					c-0.601-0.24-1.099-0.57-1.494-0.988c-0.394-0.418-0.686-0.913-0.875-1.486C145.289,149.451,145.194,148.833,145.194,148.169z
					 M151.206,147.19c-0.011-0.217-0.049-0.429-0.112-0.635c-0.063-0.206-0.161-0.389-0.292-0.55
					c-0.131-0.16-0.298-0.292-0.498-0.395c-0.201-0.103-0.45-0.154-0.748-0.154c-0.287,0-0.533,0.049-0.738,0.146
					c-0.207,0.097-0.379,0.226-0.516,0.386c-0.137,0.16-0.243,0.346-0.317,0.558c-0.075,0.212-0.129,0.427-0.164,0.644H151.206z"/>
				<path fill="#FFFFFF" d="M161.158,147.43c-0.229,0.87-0.471,1.735-0.73,2.594c-0.257,0.859-0.53,1.723-0.815,2.594h-1.993
					c-0.207-0.481-0.431-1.053-0.671-1.718c-0.242-0.664-0.492-1.388-0.751-2.172c-0.257-0.785-0.521-1.615-0.791-2.491
					c-0.271-0.876-0.531-1.761-0.784-2.654h2.696c0.092,0.412,0.193,0.862,0.302,1.348c0.11,0.487,0.225,0.988,0.347,1.503
					c0.12,0.515,0.247,1.033,0.38,1.554c0.131,0.521,0.267,1.022,0.405,1.503c0.15-0.504,0.295-1.019,0.438-1.546
					c0.144-0.526,0.281-1.045,0.412-1.554c0.131-0.51,0.259-1.002,0.379-1.477s0.225-0.919,0.317-1.331h1.855
					c0.092,0.412,0.194,0.856,0.309,1.331c0.115,0.475,0.235,0.967,0.361,1.477c0.126,0.509,0.259,1.028,0.396,1.554
					c0.137,0.527,0.281,1.042,0.429,1.546c0.138-0.481,0.277-0.982,0.415-1.503c0.138-0.521,0.267-1.039,0.389-1.554
					c0.12-0.516,0.236-1.016,0.345-1.503c0.11-0.486,0.211-0.936,0.303-1.348h2.661c-0.253,0.893-0.513,1.778-0.784,2.654
					c-0.27,0.876-0.534,1.706-0.791,2.491c-0.259,0.784-0.512,1.508-0.759,2.172c-0.246,0.665-0.474,1.237-0.679,1.718h-1.993
					c-0.287-0.87-0.566-1.735-0.841-2.594C161.641,149.165,161.388,148.3,161.158,147.43z"/>
			</g>
		</g>
	</g>
</g>
</svg>
